# xmcd
#
# Track frame offsets:
# 150
# 17094
# 35393
# 54423
# 75132
# 89088
# 105395
# 122613
# 137419
# 154030
# 171287
# 191561
# 210679
# 230634
#
# Disc length: 3329 seconds
#
#
# Revision: 0
# Processed by: cddbd v1.5.2PL0 Copyright (c) Steve Scherf et al.
# Submitted via: FreeRIP 2.93 
#
DISCID=ab0cff0e
DTITLE=Temas Sertanejos Novela - Temas Sertanejos Novela
DYEAR=2004
DGENRE=Sertanejo
TTITLE0=Tristeza do Jeca - Zeze Di Camargo and Luciano
TTITLE1=Brincar de Ser Feliz - Chitaozinho and Chororo
TTITLE2=Doce Misterio - Leandro and  Leonardo
TTITLE3=Sem Medo de Ser Feliza - Zeze Di Camargo and Luciano
TTITLE4=Peao Apaixonado - Rio Negro and Solimoes
TTITLE5=Coracao Sertanejo - Chitaozinho and Chororo
TTITLE6=Vaqueiro De Profissao - Jair Rodrigues
TTITLE7=Nao Olhe Assim - Leandro and  Leonardo
TTITLE8=A Saudade e Uma Estrada Longa - Almir Sater
TTITLE9=Eu So Penso em Voce - Zeze Di Camargo and Luciano
TTITLE10=Luar do Sertão - Roberta Miranda
TTITLE11=No Rancho Fundo - Chitaozinho and Chororo
TTITLE12=Quando o Amor se Vai - Renato Teixeira
TTITLE13=Foi a Primeira Vez - Zeze Di Camargo and Luciano
EXTD=
EXTT0=
EXTT1=
EXTT2=
EXTT3=
EXTT4=
EXTT5=
EXTT6=
EXTT7=
EXTT8=
EXTT9=
EXTT10=
EXTT11=
EXTT12=
EXTT13=
PLAYORDER=
